<svg version="1.1" xmlns="http://www.w3.org/2000/svg" xmlns:xlink="http://www.w3.org/1999/xlink">
    <defs>
        <symbol id="bag" xmlns="http://www.w3.org/2000/svg" viewBox="-35 0 512 512.001" >
            <path d="M443.055 495.172L404.14 124.598c-.817-7.758-7.356-13.649-15.157-13.649h-73.14V94.273C315.844 42.293 273.55 0 221.57 0c-51.984 0-94.277 42.293-94.277 94.273v16.676h-73.14c-7.801 0-14.34 5.89-15.157 13.649L.082 495.172a15.263 15.263 0 003.832 11.789A15.25 15.25 0 0015.238 512h412.657c4.32 0 8.437-1.832 11.324-5.04a15.236 15.236 0 003.836-11.788zM157.77 94.273c0-35.175 28.62-63.796 63.8-63.796 35.176 0 63.797 28.62 63.797 63.796v16.676H157.77zM32.16 481.523l35.715-340.097h59.418v33.582c0 8.414 6.824 15.238 15.238 15.238s15.239-6.824 15.239-15.238v-33.582h127.597v33.582c0 8.414 6.824 15.238 15.238 15.238 8.415 0 15.239-6.824 15.239-15.238v-33.582h59.418l35.715 340.097zm0 0" />
        </symbol>

        <symbol id="profile" xmlns="http://www.w3.org/2000/svg" viewBox="0 0 512 512">
            <path d="M256 288.389c-153.837 0-238.56 72.776-238.56 204.925 0 10.321 8.365 18.686 18.686 18.686h439.747c10.321 0 18.686-8.365 18.686-18.686.001-132.142-84.722-204.925-238.559-204.925zM55.492 474.628c7.35-98.806 74.713-148.866 200.508-148.866s193.159 50.06 200.515 148.866H55.492zM256 0c-70.665 0-123.951 54.358-123.951 126.437 0 74.19 55.604 134.54 123.951 134.54s123.951-60.35 123.951-134.534C379.951 54.358 326.665 0 256 0zm0 223.611c-47.743 0-86.579-43.589-86.579-97.168 0-51.611 36.413-89.071 86.579-89.071 49.363 0 86.579 38.288 86.579 89.071 0 53.579-38.836 97.168-86.579 97.168z"/>
        </symbol>

        <symbol id="facebook" xmlns="http://www.w3.org/2000/svg" viewBox="0 0 112.196 112.196">
            <circle cx="56.098" cy="56.098" r="56.098" fill="#3b5998"/>
            <path d="M70.201 58.294h-10.01v36.672H45.025V58.294h-7.213V45.406h7.213v-8.34c0-5.964 2.833-15.303 15.301-15.303l11.234.047v12.51h-8.151c-1.337 0-3.217.668-3.217 3.513v7.585h11.334l-1.325 12.876z" fill="#fff"/>
        </symbol>

        <symbol id="down-arrow" viewBox="0 0 612 612" xmlns="http://www.w3.org/2000/svg">
            <path d="M604.501 134.782c-9.999-10.05-26.222-10.05-36.221 0L306.014 422.558 43.721 134.782c-9.999-10.05-26.223-10.05-36.222 0s-9.999 26.35 0 36.399l279.103 306.241c5.331 5.357 12.422 7.652 19.386 7.296 6.988.356 14.055-1.939 19.386-7.296l279.128-306.268c9.998-10.048 9.998-26.322-.001-36.372z"/>
        </symbol>

        VIEWBOX PROPERTY IS THE MOST IMPORTANT IN SVG. IF YOU DONT HAVE ONE - BIG PROBLEm
    </defs>
</svg>